<?xml version="1.0" encoding="UTF-8" standalone="no"?>
<!-- Created with Inkscape (http://www.inkscape.org/) -->

<svg
   width="120.66263mm"
   height="65.04731mm"
   viewBox="0 0 120.66263 65.04731"
   version="1.1"
   id="svg1"
   xml:space="preserve"
   xmlns:xlink="http://www.w3.org/1999/xlink"
   xmlns="http://www.w3.org/2000/svg"
   xmlns:svg="http://www.w3.org/2000/svg"><defs
     id="defs1"><linearGradient
       id="linearGradient12"><stop
         style="stop-color:#ab2b44;stop-opacity:1;"
         offset="0"
         id="stop13" /><stop
         style="stop-color:#005c53;stop-opacity:1;"
         offset="1"
         id="stop12" /></linearGradient><linearGradient
       xlink:href="#linearGradient12"
       id="linearGradient13"
       x1="61.101326"
       y1="251.5475"
       x2="61.101326"
       y2="259.82825"
       gradientUnits="userSpaceOnUse" /></defs><g
     id="g9"
     transform="translate(-116.30716,-204.29448)"><g
       id="layer18"
       transform="translate(19.775327,-45.924521)"><path
         d="m 117.26178,266.488 v -15.99691 h 8.28076 v 31.99383 h -8.28076 z"
         style="fill:#ab2b44;fill-opacity:1"
         id="path1-2-2-7" /><path
         d="m 174.91865,230.27336 c -0.004,-2.14803 -0.009,-4.29605 -0.0134,-6.44408 4.49666,0.0576 9.03483,0.65449 13.50235,-0.18346 1.17387,-0.29012 2.83005,-0.75643 3.03247,-2.39932 0.10822,-1.52906 -1.31892,-1.99077 -2.32996,-2.29581 -3.07478,-1.06711 -6.1803,-2.02255 -9.23337,-3.16863 -2.12468,-0.87294 -4.03789,-2.85849 -4.39631,-5.55107 -0.55111,-3.33689 0.33438,-7.18829 2.84786,-9.15393 3.10959,-2.46189 7.02669,-2.73895 10.67031,-2.8929 3.11533,-0.0904 6.22844,0.14449 9.34343,0.13295 -0.0149,2.57937 -0.03,5.15875 -0.0449,7.73812 -4.78716,-0.0233 -9.67349,-1.08578 -14.38506,0.34363 -1.62167,0.19119 -1.83638,2.86329 -0.19865,3.28395 3.16582,1.10508 6.38973,1.99006 9.53975,3.15611 2.47342,0.97795 4.91781,3.08978 5.4219,6.24539 0.52365,3.11196 -0.0864,6.85106 -2.47636,8.72695 -2.74904,2.13513 -6.19762,2.29811 -9.39305,2.49512 -3.96154,0.14519 -7.92474,-0.0442 -11.88698,-0.033 z"
         id="path1-8-7"
         style="font-weight:bold;font-size:60.474px;font-family:'CaskaydiaCove Nerd Font Propo';-inkscape-font-specification:'CaskaydiaCove Nerd Font Propo Bold';display:inline;fill:#ab2b44;fill-opacity:1;stroke-width:0.677196"
         aria-label="s"
         transform="translate(-46.741683,52.055591)" /><path
         style="fill:#ab2b44;fill-opacity:1"
         d="m 188.55558,282.14694 c -6.3728,-8.19357 -12.98942,-16.30176 -19.45604,-24.46247 -1.92998,-2.41765 -3.85995,-4.83529 -5.78993,-7.25294 h -10.51184 v 31.81312 c 2.66616,-0.0339 5.33231,-0.0677 7.99846,-0.1016 0.0627,-7.18786 0.12547,-14.37571 0.1882,-21.56357 5.76047,7.21922 11.52094,14.43845 17.28141,21.65767 h 10.28974 z"
         id="path9-9" /><path
         id="path1-2-0"
         style="fill:#ab2b44;fill-opacity:1"
         d="m 96.531834,250.57633 c 0,10.66464 0,21.32927 0,31.99391 6.373336,0.0338 12.809506,0.005 19.207006,0.0145 0.67482,0.20602 0.60953,-0.32471 0.57198,-0.82782 -0.009,-1.91359 -0.0175,-3.82718 -0.0262,-5.74077 -3.82405,0.001 -7.64811,0.002 -11.47217,0.003 0,-8.48079 0,-16.96158 0,-25.44237 -2.7602,-1.5e-4 -5.520397,-3e-4 -8.280596,-4.5e-4 z" /></g></g><g
     id="g10"
     transform="matrix(0.76794918,-0.60491614,0.60491614,0.76794918,-183.70616,-65.38241)"><g
       id="layer13"
       transform="translate(94.627393,0.49029737)"><g
         id="layer14"><path
           d="m 56.960946,255.68787 v -15.99691 h 8.28076 v 31.99383 h -8.28076 z"
           style="fill:url(#linearGradient13);fill-opacity:1"
           id="path1-2-2" /></g><g
         id="layer6-5"
         transform="translate(-46.741683,52.055591)"><path
           d="m 114.728,219.36517 c -0.004,-2.14803 -0.009,-4.29605 -0.0134,-6.44408 4.49666,0.0576 9.03483,0.65449 13.50235,-0.18346 1.17387,-0.29012 2.83005,-0.75643 3.03247,-2.39932 0.10822,-1.52906 -1.31892,-1.99077 -2.32996,-2.29581 -3.07478,-1.06711 -6.1803,-2.02255 -9.23337,-3.16863 -2.12468,-0.87294 -4.03789,-2.85849 -4.39631,-5.55107 -0.55111,-3.33689 0.33438,-7.18829 2.84786,-9.15393 3.10959,-2.46189 7.02669,-2.73895 10.67031,-2.8929 3.11533,-0.0904 6.22844,0.14449 9.34343,0.13295 -0.0149,2.57937 -0.03,5.15875 -0.0449,7.73812 -4.78716,-0.0233 -9.67349,-1.08578 -14.38506,0.34363 -1.62167,0.19119 -1.83638,2.86329 -0.19865,3.28395 3.16582,1.10508 6.38973,1.99006 9.53975,3.15611 2.47342,0.97795 4.91781,3.08978 5.4219,6.24539 0.52365,3.11196 -0.0864,6.85106 -2.47636,8.72695 -2.74904,2.13513 -6.19762,2.29811 -9.39305,2.49512 -3.96154,0.14519 -7.92474,-0.0442 -11.88698,-0.033 z"
           id="path1-8"
           style="font-weight:bold;font-size:60.474px;font-family:'CaskaydiaCove Nerd Font Propo';-inkscape-font-specification:'CaskaydiaCove Nerd Font Propo Bold';display:inline;fill:#005b53;fill-opacity:1;stroke-width:0.677196"
           aria-label="s" /></g><g
         id="layer15"><path
           id="path1-27-9"
           style="fill:#005c53;fill-opacity:1"
           d="m 34.996891,239.65096 c 0,10.60194 0,21.20387 0,31.80581 5.77175,-2.6e-4 11.542898,9.2e-4 17.314705,5.2e-4 0,-2.32113 0,-4.64227 0,-6.9634 -3.19946,0 -6.39892,0 -9.59838,0 0,-1.75666 0,-3.51331 0,-5.26997 3.073886,0 6.147773,0 9.221659,0 0,-2.38383 0,-4.76767 0,-7.1515 -3.073886,0 -6.147773,0 -9.221659,0 0,-1.81935 0,-3.63871 0,-5.45806 3.199288,0 6.398575,0 9.597863,0 0,-2.32113 0,-4.64227 0,-6.9634 -5.771396,0 -11.542792,0 -17.314188,0 z" /></g></g></g></svg>
