<?xml version="1.0" encoding="UTF-8" standalone="no"?>
<!-- Created with Inkscape (http://www.inkscape.org/) -->

<svg
   width="124.62181mm"
   height="32.468903mm"
   viewBox="0 0 124.62181 32.468903"
   version="1.1"
   id="svg1"
   xml:space="preserve"
   xmlns="http://www.w3.org/2000/svg"
   xmlns:svg="http://www.w3.org/2000/svg"><defs
     id="defs1" /><g
     id="layer7"
     transform="translate(-58.240319,-109.43891)"><g
       id="layer5"
       transform="translate(-0.81716232,6.6910326)"><path
         d="m 120.1785,135.21567 c -4.26305,0.0421 -8.9561,-1.11274 -11.64414,-4.68104 -2.39154,-3.13134 -2.67868,-7.20202 -2.58916,-10.99572 0,-5.49054 0,-10.98109 0,-16.47164 2.75387,0 5.50773,0 8.2616,0 0.0153,6.37051 -0.031,12.7422 0.0239,19.11197 0.0589,2.38909 1.18383,5.06166 3.66058,5.78666 2.59651,0.81229 6.04861,0.26274 7.35536,-2.39812 1.24405,-2.48488 0.75866,-5.32033 0.85871,-7.9945 0,-4.83533 0,-9.67067 0,-14.50601 2.70897,0 5.41793,0 8.1269,0 -0.0194,6.48619 0.0399,12.97369 -0.0316,19.45902 -0.1369,3.93606 -1.57917,8.13085 -5.00898,10.37738 -2.63162,1.78709 -5.89217,2.30905 -9.01315,2.312 z"
         id="text1"
         style="font-weight:900;font-size:44.9px;font-family:'Nunito Sans';-inkscape-font-specification:'Nunito Sans Heavy';display:inline;fill:#8e036c;stroke-width:0.530314"
         aria-label="U" /></g><g
       id="layer6"
       transform="translate(-0.81716232,7.1116648)"><path
         d="m 134.34533,134.4372 c -0.005,-2.14803 -0.0104,-4.29605 -0.0156,-6.44408 5.23456,0.0576 10.51744,0.65449 15.71807,-0.18346 1.36651,-0.29012 3.29446,-0.75643 3.5301,-2.39932 0.12598,-1.52906 -1.53535,-1.99077 -2.7123,-2.29581 -3.57935,-1.06711 -7.19449,-2.02255 -10.74856,-3.16863 -2.47334,-0.87294 -4.70051,-2.85849 -5.11774,-5.55107 -0.64155,-3.33689 0.38925,-7.18829 3.31519,-9.15393 3.61987,-2.46189 8.17976,-2.73895 12.4213,-2.8929 3.62655,-0.0904 7.25052,0.14449 10.87668,0.13295 -0.0174,2.57937 -0.0349,5.15875 -0.0523,7.73812 -5.57274,-0.0233 -11.26091,-1.08578 -16.74564,0.34363 -1.88779,0.19119 -2.13773,2.86329 -0.23125,3.28395 3.68533,1.10508 7.43828,1.99006 11.10522,3.15611 2.8793,0.97795 5.72481,3.08978 6.31163,6.24539 0.36442,3.35711 -0.10056,6.85106 -2.88273,8.72695 -3.20016,2.13513 -7.21465,2.29811 -10.93445,2.49512 -4.61162,0.14519 -9.22518,-0.0442 -13.83762,-0.033 z"
         id="path1"
         style="font-weight:bold;font-size:60.474px;font-family:'CaskaydiaCove Nerd Font Propo';-inkscape-font-specification:'CaskaydiaCove Nerd Font Propo Bold';display:inline;fill:#8e036c;fill-opacity:1;stroke-width:0.73065"
         aria-label="s" /></g><g
       id="layer4"
       transform="translate(-0.81716232,6.9398388)"><path
         d="m 46.296693,177.38697 c 1.243383,-1.73365 2.486767,-3.4673 3.73015,-5.20095 2.63312,0 5.266241,0 7.899361,0 0,-1.81905 0,-3.6381 0,-5.45715 -4.103624,-0.0817 -8.214582,0.002 -12.311474,-0.25919 -2.03729,-0.20177 -3.74868,-2.01999 -3.72469,-4.09141 -0.21407,-1.76117 0.7905,-3.56986 2.46503,-4.21082 1.650378,-0.68445 3.500439,-0.37706 5.244008,-0.48927 2.775688,-0.0293 5.551418,-0.0546 8.327126,-0.082 0,-2.33337 0,-4.66674 0,-7.00011 -4.982773,0.0848 -9.970777,0.0156 -14.948884,0.25791 -3.34427,0.14445 -6.22493,2.50782 -7.65757,5.43912 -1.54381,3.01041 -1.60346,6.72129 -0.35183,9.8445 1.11918,2.80271 3.76806,4.75261 6.66969,5.39176 0.77106,0.0505 -0.16528,0.64567 -0.32043,0.99164 -2.61735,3.32456 -5.33087,6.57912 -7.78644,10.02615 3.00541,0.0992 6.02437,0.0149 9.0358,0.0407 1.24338,-1.73362 2.48677,-3.46724 3.730153,-5.20086 z"
         style="display:inline;fill:#8e036c;fill-opacity:1;stroke-width:1.00492"
         id="path1-68"
         transform="matrix(-1,0,0,1,139.16177,-47.935061)" /></g><g
       id="layer2"
       style="display:inline"
       transform="translate(22.063383,14.428209)"><g
         id="g7"
         transform="matrix(-1,0,0,1,157.43494,-151.59452)"
         style="display:inline;fill:#8e036c;fill-opacity:1"><path
           id="path4"
           style="fill:#8e036c;fill-opacity:1"
           d="m 18.151151,246.75151 c 0,10.66447 0,21.32893 0,31.9934 -2.76021,0 -5.520421,0 -8.2806312,0 0,-8.34351 0,-16.68701 0,-25.03052 -4.4074829,0 -8.8149658,0 -13.2224487,0 -0.00396,-2.32096 -0.00792,-4.64192 -0.011886,-6.96288 7.1716553,0 14.3433109,0 21.5149659,0 z" /></g></g><g
       id="g4"
       style="display:inline"
       transform="matrix(-1,0,0,1,145.07338,14.428209)"><path
         id="path1-1"
         style="display:inline;fill:#8e036c;fill-opacity:1"
         d="m 86.833061,95.16164 -0.01189,6.9634 h -8.657348 -4.565096 v 9.03356 15.99695 H 69.458411 65.318095 V 111.1586 95.16164 h 4.140316 0.04806 4.092257 0.706933 z" /></g></g></svg>
